<svg width="136.000000" height="136.000000" viewBox="0 0 136 136" fill="none" xmlns="http://www.w3.org/2000/svg" xmlns:xlink="http://www.w3.org/1999/xlink">
	<desc>
			Created with Pixso.
	</desc>
	<defs>
		<clipPath id="clip8_366">
			<rect id="Icon / best support" width="136.000000" height="136.000000" fill="white" fill-opacity="0"/>
		</clipPath>
	</defs>
	<g clip-path="url(#clip8_366)">
		<path id="Vector" d="M60.5993 86.1704C60.0448 85.5417 59.3268 85.0906 58.5307 84.8707C57.7346 84.6509 56.894 84.6715 56.109 84.9302L48.4218 87.4545C48.0013 87.5933 47.5573 87.6398 47.1183 87.5911C46.6793 87.5425 46.2551 87.3997 45.8728 87.1718C45.4905 86.944 45.1587 86.6362 44.8986 86.2683C44.6385 85.9005 44.456 85.4805 44.3626 85.0355L42.638 76.91C42.4606 76.0801 42.0565 75.3197 41.4734 74.719C40.8903 74.1183 40.1526 73.7023 39.3475 73.52L38.9845 73.4381L11.3333 115.203L33.8559 113.653L40.1248 136L68.3744 93.3862C67.9333 93.3889 67.4967 93.2952 67.0933 93.1112C66.6899 92.9271 66.329 92.6571 66.0342 92.3186L60.5993 86.1704Z" fill="#A78BFA" fill-opacity="1.000000" fill-rule="nonzero"/>
		<path id="Vector" d="M60.5993 86.1703C60.1962 85.7115 59.7046 85.3445 59.1561 85.0927C58.6076 84.8408 58.0142 84.7098 57.4138 84.7078C56.9709 84.7075 56.5306 84.7786 56.109 84.9185L48.4218 87.4426C48.0011 87.5814 47.5569 87.6281 47.1178 87.5793C46.6786 87.5308 46.2542 87.3879 45.8716 87.1602C45.4892 86.9324 45.1571 86.6246 44.8967 86.2567C44.6364 85.8888 44.4535 85.4688 44.3598 85.0237L43.5088 80.9932L20.7225 114.557L33.8531 113.653L37.5094 126.681L63.0984 88.9987L60.5993 86.1703ZM75.395 86.1703C75.9495 85.5416 76.6676 85.0905 77.4636 84.8706C78.2597 84.6508 79.1003 84.6714 79.8853 84.9301L87.5725 87.4543C87.993 87.5931 88.437 87.6396 88.876 87.5911C89.315 87.5424 89.7393 87.3995 90.1215 87.1718C90.5038 86.9438 90.8356 86.6361 91.0957 86.2682C91.3558 85.9004 91.5384 85.4803 91.6317 85.0354L93.3563 76.9099C93.5339 76.0803 93.9381 75.3204 94.5212 74.7202C95.1043 74.12 95.8419 73.7045 96.6468 73.5228L97.0099 73.4409L124.667 115.203L102.144 113.653L95.8752 136L67.6199 93.3861C68.061 93.3888 68.4976 93.2952 68.901 93.1111C69.3044 92.927 69.6653 92.657 69.9601 92.3185L75.395 86.1703Z" fill="#A78BFA" fill-opacity="1.000000" fill-rule="nonzero"/>
		<path id="Vector" d="M75.3951 86.1703C75.9497 85.5416 76.6677 85.0906 77.4638 84.8707C78.2599 84.6509 79.1004 84.6715 79.8855 84.9302L87.5726 87.4543C87.9931 87.5931 88.4371 87.6398 88.8761 87.5911C89.3151 87.5424 89.7394 87.3995 90.1217 87.1718C90.5039 86.944 90.8358 86.6362 91.0959 86.2683C91.3559 85.9004 91.5385 85.4805 91.6318 85.0354L92.4828 81.0049L115.266 114.557L102.133 113.653L98.4793 126.681L72.8961 88.9988L75.3951 86.1703Z" fill="#A78BFA" fill-opacity="1.000000" fill-rule="nonzero"/>
		<path id="Vector" d="M79.1674 89.7714L86.5426 92.1932C87.6026 92.5417 88.7216 92.6581 89.8277 92.5349C90.9339 92.4116 92.0029 92.0516 92.9663 91.4778C93.9297 90.9041 94.7664 90.129 95.4225 89.2026C96.0787 88.2761 96.5401 87.2186 96.777 86.0977L98.4279 78.3055L99.9937 77.9546L97.0068 73.4414L96.6437 73.5233C95.8399 73.7059 95.1035 74.1219 94.5215 74.722C93.9395 75.3223 93.5361 76.0815 93.3589 76.9104L91.6343 85.0359C91.541 85.4808 91.3584 85.9009 91.0983 86.2687C90.8383 86.6366 90.5064 86.9443 90.1241 87.1722C89.7419 87.4 89.3176 87.5428 88.8786 87.5916C88.4396 87.6401 87.9956 87.5936 87.5751 87.4548L79.8879 84.9307C79.1029 84.6719 78.2623 84.6512 77.4663 84.8711C76.6702 85.0909 75.9521 85.5421 75.3976 86.1708L69.9627 92.3131C69.7298 92.6212 69.4318 92.8705 69.0914 93.042C68.751 93.2134 68.3772 93.3025 67.9984 93.3025C67.6195 93.3025 67.2457 93.2134 66.9053 93.042C66.5649 92.8705 66.2669 92.6212 66.034 92.3131L60.6019 86.1708C60.1988 85.712 59.7072 85.345 59.1588 85.0931C58.6102 84.8413 58.0168 84.7103 57.4164 84.7083C56.9735 84.708 56.5333 84.7791 56.1116 84.9189L48.4244 87.4431C48.0038 87.5819 47.5596 87.6285 47.1204 87.5798C46.6812 87.5312 46.2568 87.3884 45.8743 87.1606C45.4918 86.9329 45.1597 86.6251 44.8993 86.2572C44.639 85.8893 44.4561 85.4692 44.3624 85.0242L42.6406 76.8987C42.4606 76.071 42.055 75.3136 41.4715 74.7156C40.8881 74.1176 40.1511 73.704 39.3473 73.5233L38.9871 73.4414L36.0143 77.9399L37.6709 78.3114L39.3218 86.1035C39.5593 87.2242 40.0212 88.2815 40.6779 89.2075C41.3346 90.1335 42.1716 90.9081 43.1353 91.4813C44.0989 92.0546 45.1681 92.4139 46.2743 92.5366C47.3804 92.6592 48.4993 92.5422 49.5591 92.1932L56.9144 89.7509L62.1422 95.6681C63.0405 96.666 64.1654 97.4178 65.4156 97.856L67.9969 93.957L70.6009 97.8823C71.8834 97.4495 73.0382 96.6875 73.9566 95.6681L79.1674 89.7714Z" fill="#7C3AED" fill-opacity="1.000000" fill-rule="nonzero"/>
		<path id="Vector" d="M60.5998 86.1704C60.1966 85.7117 59.7051 85.3446 59.1566 85.0928C58.6081 84.8411 58.0147 84.71 57.4143 84.708C56.9713 84.7078 56.5311 84.7788 56.1094 84.9186L48.4223 87.4427C48.0016 87.5815 47.5574 87.6282 47.1182 87.5795C46.679 87.5309 46.2546 87.3881 45.8721 87.1603C45.4896 86.9325 45.1575 86.6248 44.8972 86.2568C44.6368 85.8889 44.4539 85.469 44.3602 85.0238L43.5093 80.9933L20.7229 114.557L33.8535 113.653L37.5099 126.681L63.0988 88.9989L60.5998 86.1704ZM92.4888 81.005L91.6378 85.0355C91.5445 85.4806 91.3619 85.9005 91.1018 86.2684C90.8418 86.6364 90.5099 86.9441 90.1277 87.1719C89.7454 87.3997 89.3211 87.5425 88.8821 87.5912C88.4431 87.6399 87.9991 87.5933 87.5786 87.4545L79.8914 84.9303C79.1064 84.6715 78.2658 84.6509 77.4698 84.8708C76.6737 85.0907 75.9556 85.5417 75.4011 86.1704L72.9021 88.9989L98.491 126.681L102.145 113.653L115.278 114.557L92.4888 81.005Z" fill="#8B5CF6" fill-opacity="1.000000" fill-rule="nonzero"/>
		<path id="Vector" d="M63.0988 88.9989L60.5997 86.1704C60.1966 85.7117 59.705 85.3446 59.1565 85.0928C58.608 84.8411 58.0146 84.71 57.4142 84.708C56.9713 84.7078 56.5311 84.7788 56.1094 84.9186L48.4222 87.4427C48.0015 87.5815 47.5574 87.6282 47.1182 87.5795C46.679 87.5309 46.2546 87.3881 45.8721 87.1603C45.4896 86.9325 45.1575 86.6248 44.8971 86.2568C44.6368 85.8889 44.4539 85.469 44.3602 85.0238L43.5092 80.9933L39.538 86.8431C40.1808 88.9216 41.5971 90.6522 43.4759 91.6552C45.3548 92.6581 47.5427 92.8516 49.5597 92.1929L56.915 89.7506L60.1232 93.3833L63.1016 88.996L63.0988 88.9989ZM86.5404 92.1929C88.5385 92.8492 90.7066 92.6693 92.5772 91.692C94.4478 90.7147 95.8708 89.0184 96.5394 86.969L92.4887 81.005L91.6378 85.0355C91.5444 85.4806 91.3619 85.9005 91.1018 86.2684C90.8417 86.6364 90.5099 86.9441 90.1276 87.1719C89.7454 87.3997 89.3211 87.5425 88.8821 87.5912C88.4431 87.6399 87.9991 87.5933 87.5786 87.4545L79.8914 84.9303C79.1064 84.6715 78.2658 84.6509 77.4697 84.8708C76.6736 85.0907 75.9556 85.5417 75.4011 86.1704L72.902 88.9989L75.9173 93.4419L79.1681 89.7653L86.5404 92.1929Z" fill="#A78BFA" fill-opacity="1.000000" fill-rule="nonzero"/>
		<path id="Vector" d="M97.1942 19.8707L105.077 21.6461C105.585 21.7612 106.064 21.9843 106.484 22.3011C106.904 22.6179 107.255 23.0216 107.515 23.4862C107.775 23.9508 107.938 24.4662 107.994 24.9995C108.05 25.5328 107.998 26.0723 107.84 26.5835L105.392 34.51C105.175 35.2128 105.158 35.9648 105.343 36.6772C105.528 37.3895 105.907 38.0322 106.436 38.5289L112.393 44.1302C112.777 44.4915 113.085 44.9316 113.295 45.4225C113.505 45.9133 113.614 46.444 113.614 46.9806C113.614 47.5172 113.505 48.0479 113.295 48.5387C113.085 49.0295 112.777 49.4696 112.393 49.8309L106.436 55.4352C105.907 55.9316 105.528 56.5743 105.342 57.2867C105.157 57.9991 105.175 58.7513 105.392 59.454L107.84 67.3806C107.998 67.8916 108.05 68.4309 107.994 68.964C107.938 69.4972 107.775 70.0123 107.515 70.4768C107.255 70.9412 106.904 71.3445 106.484 71.661C106.064 71.9775 105.585 72.2003 105.077 72.3151L97.1942 74.0934C96.4954 74.251 95.8551 74.6119 95.3493 75.1335C94.8435 75.655 94.4934 76.3153 94.3406 77.0359L92.616 85.1614C92.5054 85.6857 92.2899 86.1804 91.9832 86.6138C91.6765 87.0472 91.2853 87.4098 90.8348 87.6782C90.3843 87.9468 89.8843 88.1152 89.367 88.1729C88.8497 88.2306 88.3264 88.1761 87.8306 88.0132L80.1434 85.489C79.4621 85.2642 78.7324 85.246 78.0414 85.4369C77.3504 85.6277 76.7271 86.0194 76.246 86.5653L70.8111 92.7078C70.4609 93.1045 70.0343 93.4214 69.5586 93.6382C69.0828 93.855 68.5684 93.967 68.0482 93.967C67.528 93.967 67.0136 93.855 66.5378 93.6382C66.0621 93.4214 65.6355 93.1045 65.2854 92.7078L59.8504 86.5653C59.3693 86.0194 58.7461 85.6277 58.055 85.4369C57.364 85.246 56.6343 85.2642 55.953 85.489L48.2658 88.0132C47.7701 88.1761 47.2467 88.2306 46.7294 88.1729C46.2121 88.1152 45.7122 87.9468 45.2616 87.6782C44.8111 87.4098 44.42 87.0472 44.1133 86.6138C43.8065 86.1804 43.591 85.6857 43.4805 85.1614L41.7558 77.0359C41.603 76.3153 41.2529 75.655 40.7471 75.1335C40.2413 74.6119 39.601 74.251 38.9022 74.0934L31.0193 72.3151C30.5113 72.2003 30.0321 71.9775 29.6123 71.661C29.1926 71.3445 28.8415 70.9412 28.5814 70.4768C28.3214 70.0123 28.1582 69.4972 28.1023 68.964C28.0463 68.4309 28.0988 67.8916 28.2565 67.3806L30.7044 59.454C30.9218 58.7513 30.939 57.9991 30.7539 57.2867C30.5689 56.5743 30.1894 55.9316 29.6606 55.4352L23.7037 49.8309C23.319 49.4696 23.0116 49.0295 22.8012 48.5387C22.5909 48.0479 22.4823 47.5172 22.4823 46.9806C22.4823 46.444 22.5909 45.9133 22.8012 45.4225C23.0116 44.9316 23.319 44.4915 23.7037 44.1302L29.6606 38.5289C30.1891 38.0322 30.5684 37.3895 30.7534 36.6772C30.9384 35.9648 30.9214 35.2128 30.7044 34.51L28.2565 26.5835C28.0988 26.0723 28.0463 25.5328 28.1022 24.9995C28.1581 24.4662 28.3213 23.9508 28.5813 23.4862C28.8413 23.0216 29.1924 22.6179 29.6122 22.3011C30.032 21.9843 30.5112 21.7612 31.0193 21.6461L38.9022 19.8707C39.601 19.7131 40.2413 19.3522 40.7471 18.8306C41.2529 18.3091 41.603 17.6488 41.7558 16.9282L43.4805 8.7998C43.5913 8.27576 43.8071 7.78137 44.114 7.34827C44.4208 6.91516 44.812 6.55298 45.2625 6.28479C45.713 6.0166 46.2128 5.84839 46.73 5.79089C47.2471 5.7334 47.7702 5.78784 48.2658 5.95093L55.953 8.4751C56.6344 8.69849 57.3637 8.71582 58.0545 8.52515C58.7452 8.33435 59.3685 7.94348 59.8504 7.39868L65.2854 1.25635C65.636 0.860474 66.0627 0.544312 66.5384 0.328003C67.0141 0.111572 67.5283 -0.00012207 68.0482 -0.00012207C68.5681 -0.00012207 69.0823 0.111572 69.558 0.328003C70.0337 0.544312 70.4605 0.860474 70.8111 1.25635L76.246 7.39868C76.7279 7.94348 77.3512 8.33435 78.0419 8.52515C78.7327 8.71582 79.462 8.69849 80.1434 8.4751L87.8306 5.95093C88.3262 5.78784 88.8493 5.7334 89.3665 5.79089C89.8836 5.84839 90.3834 6.0166 90.8339 6.28479C91.2844 6.55298 91.6756 6.91516 91.9825 7.34827C92.2893 7.78137 92.5051 8.27576 92.616 8.7998L94.3406 16.9282C94.4934 17.6488 94.8435 18.3091 95.3493 18.8306C95.8551 19.3522 96.4954 19.7131 97.1942 19.8707Z" fill="#6D28D9" fill-opacity="1.000000" fill-rule="nonzero"/>
		<path id="Vector" d="M97.5777 46.9937C97.5716 52.6359 96.0452 58.1653 93.1689 62.9651C90.2927 67.7649 86.1796 71.6462 81.2887 74.1761C76.3978 76.7059 70.9213 77.7847 65.4705 77.292C60.0196 76.7994 54.8087 74.7548 50.4191 71.3861C46.0296 68.0176 42.634 63.4576 40.6113 58.2151C38.5887 52.9725 38.0184 47.2535 38.9643 41.6963C39.9101 36.139 42.3348 30.962 45.9678 26.7429C49.6009 22.5239 54.2993 19.4287 59.5389 17.8027C62.2982 16.9419 65.166 16.5082 68.0487 16.5157C71.9288 16.5161 75.7708 17.3049 79.3551 18.837C82.9394 20.3693 86.1957 22.6147 88.938 25.4452C91.6804 28.2756 93.8549 31.6355 95.3373 35.3329C96.8198 39.0304 97.5811 42.9928 97.5777 46.9937Z" fill="#A78BFA" fill-opacity="1.000000" fill-rule="nonzero"/>
		<path id="Vector" d="M97.5771 46.9937C97.5799 52.1511 96.3109 57.2247 93.8895 61.7375C91.468 66.2504 87.9735 70.0542 83.7345 72.7917C80.9753 73.6525 78.1074 74.0862 75.2247 74.0786C68.811 74.0825 62.5703 71.9336 57.4458 67.9567C52.3212 63.9797 48.5913 58.3909 46.8196 52.0347C45.0478 45.6786 45.3306 38.9005 47.6252 32.7247C49.9198 26.549 54.1015 21.3112 59.5383 17.8027C62.2975 16.9419 65.1654 16.5082 68.0481 16.5157C71.9282 16.5161 75.7702 17.3049 79.3545 18.837C82.9388 20.3693 86.1951 22.6147 88.9374 25.4452C91.6797 28.2756 93.8543 31.6355 95.3367 35.3329C96.8192 39.0303 97.5804 42.9927 97.5771 46.9937Z" fill="#8B5CF6" fill-opacity="1.000000" fill-rule="nonzero"/>
		<path id="Vector" d="M70.1982 65.7808C69.634 65.7808 69.0929 65.5496 68.6939 65.1382C68.2949 64.7268 68.0708 64.1688 68.0708 63.587L68.0708 36.385L62.5848 40.2488C62.3543 40.4178 62.0934 40.5377 61.8173 40.6016C61.5413 40.6653 61.2557 40.6718 60.9773 40.6204C60.6989 40.569 60.4331 40.4608 60.1957 40.3022C59.9583 40.1437 59.7539 39.9379 59.5945 39.6969C59.4351 39.4559 59.324 39.1847 59.2675 38.8988C59.211 38.613 59.2104 38.3185 59.2657 38.0325C59.3209 37.7463 59.4309 37.4745 59.5893 37.2328C59.7476 36.9911 59.9511 36.7844 60.1879 36.6249L68.9984 30.4181C69.3181 30.1929 69.6915 30.0619 70.0781 30.0394C70.4648 30.0168 70.85 30.1035 71.1924 30.2902C71.5348 30.4767 71.8213 30.7561 72.021 31.0983C72.2207 31.4404 72.326 31.8323 72.3257 32.2316L72.3257 63.587C72.3257 64.1688 72.1015 64.7268 71.7026 65.1382C71.3036 65.5496 70.7625 65.7808 70.1982 65.7808Z" fill="#F5F3FF" fill-opacity="1.000000" fill-rule="nonzero"/>
	</g>
</svg>
