<svg width="305.000000" height="74.000000" viewBox="0 0 305 74" fill="none" xmlns="http://www.w3.org/2000/svg" xmlns:xlink="http://www.w3.org/1999/xlink">
	<desc>
			Created with Pixso.
	</desc>
	<defs/>
	<mask id="mask5_71" mask-type="alpha" maskUnits="userSpaceOnUse" x="0.000000" y="0.000000" width="50.000000" height="74.000000">
		<path id="Vector" d="M0 0L50 0L50 74L0 74L0 0Z" fill="#000000" fill-opacity="1.000000" fill-rule="evenodd"/>
	</mask>
	<g mask="url(#mask5_71)">
		<path id="Vector" d="M25.9083 -5.72205e-05C23.1091 0.000748634 20.4248 1.10045 18.4454 3.05731C16.4661 5.01416 15.3538 7.66802 15.353 10.4354L15.353 15.176L10.5578 15.176C9.17068 15.1749 7.79689 15.4442 6.51511 15.9685C5.23332 16.4928 4.0687 17.2619 3.08786 18.2317C2.10701 19.2014 1.32921 20.3529 0.798935 21.6201C0.268661 22.8874 -0.00364685 24.2456 -0.00244141 25.617L-0.00244141 36.0488L15.3505 36.0488L15.3505 45.5301L10.5554 45.5301C7.75537 45.5297 5.06987 46.6289 3.08951 48.5859C1.10913 50.5428 -0.00393677 53.1971 -0.00491333 55.9654L-0.00491333 73.9943L10.5603 73.9943C11.9462 73.9937 13.3183 73.7233 14.5984 73.198C15.8784 72.6732 17.0413 71.904 18.0207 70.9347C19.0001 69.9654 19.7767 68.8148 20.3063 67.5484C20.8358 66.2821 21.1079 64.9256 21.1071 63.5556L21.1206 63.5556L21.1206 56.6678L21.0923 56.6715L21.0923 12.7905L21.1157 12.796L21.1157 10.4372C21.1181 9.17949 21.6237 7.97376 22.522 7.08321C23.4204 6.19265 24.6386 5.68961 25.9108 5.68383L44.2484 5.68383L44.2484 10.4372C44.2445 11.6944 43.7372 12.8989 42.8374 13.7872C41.9377 14.6756 40.7187 15.1756 39.4471 15.1779L23.2858 15.1779L23.2858 20.8678L39.4446 20.8678C42.2438 20.868 44.9285 19.7688 46.9079 17.8122C48.8875 15.8555 49.9997 13.2016 50 10.4342L50 -0.0012722L25.9083 -5.72205e-05ZM15.353 30.3582L5.75905 30.3582L5.75905 25.6176C5.76115 24.3584 6.26732 23.1512 7.16701 22.2598C8.06664 21.3684 9.28664 20.8653 10.5603 20.8605L15.3554 20.8605L15.353 30.3582ZM15.353 63.5608C15.3508 64.8177 14.8451 66.0231 13.9465 66.9122C13.0478 67.8017 11.8294 68.3031 10.5578 68.3062L5.75658 68.3062L5.75658 55.9685C5.75774 54.7105 6.26416 53.5046 7.16447 52.6156C8.06485 51.7265 9.28537 51.2274 10.5578 51.2279L15.353 51.2279L15.353 63.5608ZM23.2858 36.0482L35.3965 36.0482L35.3965 40.7936C35.3918 42.0506 34.8842 43.2546 33.9846 44.1428C33.0851 45.031 31.8666 45.5313 30.5952 45.5343L23.2858 45.5343L23.2858 51.2279L30.5977 51.2279C31.9841 51.2286 33.3569 50.9592 34.6379 50.435C35.9188 49.9109 37.0828 49.1422 38.063 48.1731C39.0434 47.2039 39.8208 46.0532 40.3511 44.7868C40.8813 43.5204 41.1538 42.1631 41.153 40.7924L41.158 40.7924L41.158 30.357L23.2858 30.357L23.2858 36.0482Z" fill="#A78BFA" fill-opacity="1.000000" fill-rule="nonzero"/>
	</g>
	<path id="FromBoard Delivery" d="M60.312 35.644L67.008 35.644L67.008 39.484L60.312 39.484L60.312 45.916L55.848 45.916L55.848 28.78L68.952 28.78L68.952 32.716L60.312 32.716L60.312 35.644ZM80.2939 33.436L80.2939 37.3L78.9739 37.3C77.6619 37.3 76.7099 37.604 76.1179 38.212C75.5419 38.82 75.2539 39.716 75.2539 40.9L75.2539 45.916L71.0779 45.916L71.0779 33.436L75.1099 33.436L75.1099 34.78L75.7819 34.78C76.2939 33.884 77.3579 33.436 78.9739 33.436L80.2939 33.436ZM88.5154 33.124C90.5314 33.124 92.1394 33.716 93.3394 34.9C94.5554 36.084 95.1634 37.676 95.1634 39.676C95.1634 41.676 94.5554 43.268 93.3394 44.452C92.1394 45.636 90.5314 46.228 88.5154 46.228C86.5154 46.228 84.8994 45.636 83.6674 44.452C82.4514 43.268 81.8434 41.676 81.8434 39.676C81.8434 37.676 82.4514 36.084 83.6674 34.9C84.8994 33.716 86.5154 33.124 88.5154 33.124ZM88.5154 42.82C89.3314 42.82 89.9474 42.532 90.3634 41.956C90.7794 41.364 90.9874 40.604 90.9874 39.676C90.9874 38.748 90.7794 37.996 90.3634 37.42C89.9474 36.828 89.3314 36.532 88.5154 36.532C87.6834 36.532 87.0594 36.828 86.6434 37.42C86.2274 37.996 86.0194 38.748 86.0194 39.676C86.0194 40.604 86.2274 41.364 86.6434 41.956C87.0594 42.532 87.6834 42.82 88.5154 42.82ZM112.677 33.124C114.181 33.124 115.309 33.572 116.061 34.468C116.813 35.348 117.189 36.588 117.189 38.188L117.189 45.916L113.013 45.916L113.013 39.052C113.013 38.3 112.893 37.732 112.653 37.348C112.413 36.964 112.005 36.772 111.429 36.772C110.805 36.772 110.341 36.988 110.037 37.42C109.733 37.852 109.581 38.42 109.581 39.124L109.581 45.916L105.405 45.916L105.405 39.052C105.405 38.3 105.285 37.732 105.045 37.348C104.805 36.964 104.397 36.772 103.821 36.772C103.181 36.772 102.709 37.012 102.405 37.492C102.117 37.956 101.973 38.564 101.973 39.316L101.973 45.916L97.7966 45.916L97.7966 33.436L101.829 33.436L101.829 34.516L102.501 34.516C103.093 33.588 104.109 33.124 105.549 33.124C106.973 33.124 108.021 33.588 108.693 34.516L109.365 34.516C110.005 33.588 111.109 33.124 112.677 33.124ZM133.039 36.748L133.039 37.42C133.615 37.708 134.111 38.164 134.527 38.788C134.959 39.396 135.175 40.092 135.175 40.876C135.175 42.396 134.679 43.62 133.687 44.548C132.695 45.46 131.207 45.916 129.223 45.916L120.559 45.916L120.559 28.78L128.959 28.78C130.831 28.78 132.255 29.22 133.231 30.1C134.223 30.98 134.719 32.1 134.719 33.46C134.719 34.196 134.559 34.86 134.239 35.452C133.935 36.028 133.535 36.46 133.039 36.748ZM125.023 32.38L125.023 35.332L128.359 35.332C129.543 35.332 130.135 34.844 130.135 33.868C130.135 32.876 129.527 32.38 128.311 32.38L125.023 32.38ZM125.023 42.244L128.503 42.244C129.095 42.244 129.591 42.116 129.991 41.86C130.391 41.604 130.591 41.196 130.591 40.636C130.591 39.5 129.919 38.932 128.575 38.932L125.023 38.932L125.023 42.244ZM144.086 33.124C146.102 33.124 147.71 33.716 148.91 34.9C150.126 36.084 150.734 37.676 150.734 39.676C150.734 41.676 150.126 43.268 148.91 44.452C147.71 45.636 146.102 46.228 144.086 46.228C142.086 46.228 140.47 45.636 139.238 44.452C138.022 43.268 137.414 41.676 137.414 39.676C137.414 37.676 138.022 36.084 139.238 34.9C140.47 33.716 142.086 33.124 144.086 33.124ZM144.086 42.82C144.902 42.82 145.518 42.532 145.934 41.956C146.35 41.364 146.558 40.604 146.558 39.676C146.558 38.748 146.35 37.996 145.934 37.42C145.518 36.828 144.902 36.532 144.086 36.532C143.254 36.532 142.63 36.828 142.214 37.42C141.798 37.996 141.59 38.748 141.59 39.676C141.59 40.604 141.798 41.364 142.214 41.956C142.63 42.532 143.254 42.82 144.086 42.82ZM158.743 33.124C162.711 33.124 164.695 34.764 164.695 38.044L164.695 45.916L160.879 45.916L160.879 44.956L160.207 44.956C159.455 45.804 158.359 46.228 156.919 46.228C155.591 46.228 154.527 45.82 153.727 45.004C152.943 44.172 152.551 43.18 152.551 42.028C152.551 40.924 152.991 39.956 153.871 39.124C154.751 38.292 156.063 37.876 157.807 37.876L160.687 37.876L160.687 37.66C160.687 36.604 160.119 36.076 158.983 36.076C157.975 36.076 157.423 36.436 157.327 37.156L153.199 37.156C153.231 35.956 153.759 34.988 154.783 34.252C155.823 33.5 157.143 33.124 158.743 33.124ZM160.687 40.996L160.687 40.252L158.671 40.252C158.079 40.252 157.607 40.38 157.255 40.636C156.903 40.876 156.727 41.228 156.727 41.692C156.727 42.668 157.319 43.156 158.503 43.156C159.175 43.156 159.703 42.956 160.087 42.556C160.487 42.14 160.687 41.62 160.687 40.996ZM177.067 33.436L177.067 37.3L175.747 37.3C174.435 37.3 173.483 37.604 172.891 38.212C172.315 38.82 172.027 39.716 172.027 40.9L172.027 45.916L167.851 45.916L167.851 33.436L171.883 33.436L171.883 34.78L172.555 34.78C173.067 33.884 174.131 33.436 175.747 33.436L177.067 33.436ZM183.801 33.124C185.177 33.124 186.217 33.58 186.921 34.492L187.593 34.492L187.593 28.468L191.769 28.468L191.769 45.916L187.737 45.916L187.737 44.86L187.065 44.86C186.329 45.772 185.241 46.228 183.801 46.228C182.201 46.228 180.937 45.628 180.009 44.428C179.081 43.212 178.617 41.628 178.617 39.676C178.617 37.74 179.089 36.164 180.033 34.948C180.977 33.732 182.233 33.124 183.801 33.124ZM183.393 41.932C183.793 42.524 184.409 42.82 185.241 42.82C186.073 42.82 186.697 42.524 187.113 41.932C187.545 41.34 187.761 40.588 187.761 39.676C187.761 38.764 187.545 38.012 187.113 37.42C186.697 36.828 186.073 36.532 185.241 36.532C184.409 36.532 183.793 36.828 183.393 37.42C182.993 38.012 182.793 38.764 182.793 39.676C182.793 40.588 182.993 41.34 183.393 41.932ZM201.957 28.78L209.589 28.78C212.165 28.78 214.133 29.548 215.493 31.084C216.853 32.62 217.533 34.708 217.533 37.348C217.533 39.988 216.853 42.076 215.493 43.612C214.133 45.148 212.165 45.916 209.589 45.916L201.957 45.916L201.957 28.78ZM206.421 41.98L208.869 41.98C210.293 41.98 211.333 41.556 211.989 40.708C212.645 39.86 212.973 38.74 212.973 37.348C212.973 35.94 212.645 34.82 211.989 33.988C211.333 33.14 210.293 32.716 208.869 32.716L206.421 32.716L206.421 41.98ZM228.08 41.884L232.304 41.884C232.016 43.276 231.36 44.348 230.336 45.1C229.312 45.852 227.928 46.228 226.184 46.228C224.184 46.228 222.592 45.644 221.408 44.476C220.224 43.308 219.632 41.708 219.632 39.676C219.632 37.644 220.216 36.044 221.384 34.876C222.552 33.708 224.12 33.124 226.088 33.124C228.056 33.124 229.6 33.676 230.72 34.78C231.84 35.884 232.4 37.38 232.4 39.268L232.4 40.228L223.76 40.228C223.936 41.956 224.768 42.82 226.256 42.82C227.216 42.82 227.824 42.508 228.08 41.884ZM226.088 36.1C224.968 36.1 224.248 36.644 223.928 37.732L228.128 37.732C227.904 36.644 227.224 36.1 226.088 36.1ZM235.047 28.468L239.223 28.468L239.223 45.916L235.047 45.916L235.047 28.468ZM242.523 28.468L246.699 28.468L246.699 31.948L242.523 31.948L242.523 28.468ZM242.523 33.436L246.699 33.436L246.699 45.916L242.523 45.916L242.523 33.436ZM252.016 45.916L248.8 33.436L253 33.436L255.088 42.364L256.144 42.364L258.112 33.436L262.312 33.436L259.024 45.916L252.016 45.916ZM272.19 41.884L276.414 41.884C276.126 43.276 275.47 44.348 274.446 45.1C273.422 45.852 272.038 46.228 270.294 46.228C268.294 46.228 266.702 45.644 265.518 44.476C264.334 43.308 263.742 41.708 263.742 39.676C263.742 37.644 264.326 36.044 265.494 34.876C266.662 33.708 268.23 33.124 270.198 33.124C272.166 33.124 273.71 33.676 274.83 34.78C275.95 35.884 276.51 37.38 276.51 39.268L276.51 40.228L267.87 40.228C268.046 41.956 268.878 42.82 270.366 42.82C271.326 42.82 271.934 42.508 272.19 41.884ZM270.198 36.1C269.078 36.1 268.358 36.644 268.038 37.732L272.238 37.732C272.014 36.644 271.334 36.1 270.198 36.1ZM288.372 33.436L288.372 37.3L287.052 37.3C285.74 37.3 284.788 37.604 284.196 38.212C283.62 38.82 283.332 39.716 283.332 40.9L283.332 45.916L279.156 45.916L279.156 33.436L283.188 33.436L283.188 34.78L283.86 34.78C284.372 33.884 285.436 33.436 287.052 33.436L288.372 33.436ZM300.177 33.436L304.305 33.436L296.745 50.716L292.617 50.716L295.233 44.548L290.001 33.436L294.177 33.436L296.985 39.484L297.657 39.484L300.177 33.436Z" fill="#111827" fill-opacity="1.000000" fill-rule="evenodd"/>
</svg>
